<mxfile host="app.diagrams.net" agent="Mozilla/5.0 (X11; Linux x86_64) AppleWebKit/537.36 (KHTML, like Gecko) Chrome/140.0.0.0 Safari/537.36" version="28.2.5">
  <diagram id="byXjQ-FVxBAed2GFHeMV" name="Page-1">
    <mxGraphModel dx="745" dy="1109" grid="1" gridSize="10" guides="1" tooltips="1" connect="1" arrows="1" fold="1" page="1" pageScale="1" pageWidth="1169" pageHeight="827" math="0" shadow="0">
      <root>
        <mxCell id="0" />
        <mxCell id="1" parent="0" />
        <mxCell id="3DrkHUAuv51QnaSY-TX0-9" style="shape=connector;rounded=0;orthogonalLoop=1;jettySize=auto;html=1;entryX=0.5;entryY=0;entryDx=0;entryDy=0;strokeColor=default;align=center;verticalAlign=middle;fontFamily=Times New Roman;fontSize=11;fontColor=default;labelBackgroundColor=default;endArrow=block;endFill=1;" parent="1" source="3DrkHUAuv51QnaSY-TX0-4" target="3DrkHUAuv51QnaSY-TX0-5" edge="1">
          <mxGeometry relative="1" as="geometry" />
        </mxCell>
        <mxCell id="3DrkHUAuv51QnaSY-TX0-10" style="shape=connector;rounded=0;orthogonalLoop=1;jettySize=auto;html=1;entryX=0.5;entryY=0;entryDx=0;entryDy=0;strokeColor=default;align=center;verticalAlign=middle;fontFamily=Times New Roman;fontSize=11;fontColor=default;labelBackgroundColor=default;endArrow=block;endFill=1;" parent="1" source="3DrkHUAuv51QnaSY-TX0-4" target="3DrkHUAuv51QnaSY-TX0-6" edge="1">
          <mxGeometry relative="1" as="geometry" />
        </mxCell>
        <mxCell id="3DrkHUAuv51QnaSY-TX0-4" value="Root" style="rounded=1;whiteSpace=wrap;html=1;fontFamily=Times New Roman;" parent="1" vertex="1">
          <mxGeometry x="480" y="100" width="80" height="60" as="geometry" />
        </mxCell>
        <mxCell id="3DrkHUAuv51QnaSY-TX0-8" value="" style="edgeStyle=orthogonalEdgeStyle;rounded=0;orthogonalLoop=1;jettySize=auto;html=1;endArrow=block;endFill=1;fontFamily=Times New Roman;" parent="1" source="3DrkHUAuv51QnaSY-TX0-5" target="3DrkHUAuv51QnaSY-TX0-7" edge="1">
          <mxGeometry relative="1" as="geometry" />
        </mxCell>
        <mxCell id="3DrkHUAuv51QnaSY-TX0-5" value="Node 1" style="rounded=1;whiteSpace=wrap;html=1;fontFamily=Times New Roman;" parent="1" vertex="1">
          <mxGeometry x="400" y="200" width="80" height="60" as="geometry" />
        </mxCell>
        <mxCell id="3DrkHUAuv51QnaSY-TX0-6" value="Node 3&lt;div&gt;&lt;i&gt;(duplicate of 2)&lt;/i&gt;&lt;/div&gt;" style="rounded=1;whiteSpace=wrap;html=1;fontFamily=Times New Roman;fillColor=#f8cecc;strokeColor=default;" parent="1" vertex="1">
          <mxGeometry x="560" y="200" width="80" height="60" as="geometry" />
        </mxCell>
        <mxCell id="3DrkHUAuv51QnaSY-TX0-42" value="" style="edgeStyle=orthogonalEdgeStyle;shape=connector;rounded=0;orthogonalLoop=1;jettySize=auto;html=1;strokeColor=default;align=center;verticalAlign=middle;fontFamily=Helvetica;fontSize=11;fontColor=default;labelBackgroundColor=default;endArrow=block;endFill=1;" parent="1" source="3DrkHUAuv51QnaSY-TX0-7" edge="1" target="kWlhVEwk57Aopgg1cDPC-1">
          <mxGeometry relative="1" as="geometry">
            <mxPoint x="440" y="400" as="targetPoint" />
          </mxGeometry>
        </mxCell>
        <mxCell id="3DrkHUAuv51QnaSY-TX0-7" value="Node 2" style="rounded=1;whiteSpace=wrap;html=1;fontFamily=Times New Roman;" parent="1" vertex="1">
          <mxGeometry x="400" y="300" width="80" height="60" as="geometry" />
        </mxCell>
        <mxCell id="3DrkHUAuv51QnaSY-TX0-22" value="" style="endArrow=none;dashed=1;html=1;dashPattern=1 3;strokeWidth=2;rounded=0;align=center;verticalAlign=middle;fontFamily=Times New Roman;fontSize=11;fontColor=default;labelBackgroundColor=default;edgeStyle=orthogonalEdgeStyle;fillColor=#f5f5f5;strokeColor=#666666;" parent="1" edge="1">
          <mxGeometry width="50" height="50" relative="1" as="geometry">
            <mxPoint x="320" y="280" as="sourcePoint" />
            <mxPoint x="680" y="280" as="targetPoint" />
          </mxGeometry>
        </mxCell>
        <mxCell id="3DrkHUAuv51QnaSY-TX0-23" value="Depth 1" style="text;html=1;align=center;verticalAlign=middle;whiteSpace=wrap;rounded=0;fontFamily=Times New Roman;fontSize=11;fontColor=default;labelBackgroundColor=default;" parent="1" vertex="1">
          <mxGeometry x="320" y="215" width="60" height="30" as="geometry" />
        </mxCell>
        <mxCell id="3DrkHUAuv51QnaSY-TX0-25" value="Depth 2" style="text;html=1;align=center;verticalAlign=middle;whiteSpace=wrap;rounded=0;fontFamily=Times New Roman;fontSize=11;fontColor=default;labelBackgroundColor=default;" parent="1" vertex="1">
          <mxGeometry x="320" y="315" width="60" height="30" as="geometry" />
        </mxCell>
        <mxCell id="3DrkHUAuv51QnaSY-TX0-26" value="Depth 0" style="text;html=1;align=center;verticalAlign=middle;whiteSpace=wrap;rounded=0;fontFamily=Times New Roman;fontSize=11;fontColor=default;labelBackgroundColor=default;" parent="1" vertex="1">
          <mxGeometry x="320" y="115" width="60" height="30" as="geometry" />
        </mxCell>
        <mxCell id="3DrkHUAuv51QnaSY-TX0-27" value="" style="endArrow=none;dashed=1;html=1;dashPattern=1 3;strokeWidth=2;rounded=0;align=center;verticalAlign=middle;fontFamily=Times New Roman;fontSize=11;fontColor=default;labelBackgroundColor=default;edgeStyle=orthogonalEdgeStyle;fillColor=#f5f5f5;strokeColor=#666666;" parent="1" edge="1">
          <mxGeometry width="50" height="50" relative="1" as="geometry">
            <mxPoint x="320" y="180" as="sourcePoint" />
            <mxPoint x="680" y="180" as="targetPoint" />
          </mxGeometry>
        </mxCell>
        <mxCell id="3DrkHUAuv51QnaSY-TX0-28" style="shape=connector;rounded=0;orthogonalLoop=1;jettySize=auto;html=1;entryX=0.5;entryY=0;entryDx=0;entryDy=0;strokeColor=default;align=center;verticalAlign=middle;fontFamily=Times New Roman;fontSize=11;fontColor=default;labelBackgroundColor=default;endArrow=block;endFill=1;" parent="1" source="3DrkHUAuv51QnaSY-TX0-30" target="3DrkHUAuv51QnaSY-TX0-32" edge="1">
          <mxGeometry relative="1" as="geometry" />
        </mxCell>
        <mxCell id="3DrkHUAuv51QnaSY-TX0-29" style="shape=connector;rounded=0;orthogonalLoop=1;jettySize=auto;html=1;entryX=0.5;entryY=0;entryDx=0;entryDy=0;strokeColor=default;align=center;verticalAlign=middle;fontFamily=Times New Roman;fontSize=11;fontColor=default;labelBackgroundColor=default;endArrow=block;endFill=1;" parent="1" source="3DrkHUAuv51QnaSY-TX0-30" target="3DrkHUAuv51QnaSY-TX0-33" edge="1">
          <mxGeometry relative="1" as="geometry" />
        </mxCell>
        <mxCell id="3DrkHUAuv51QnaSY-TX0-30" value="Root" style="rounded=1;whiteSpace=wrap;html=1;fontFamily=Times New Roman;" parent="1" vertex="1">
          <mxGeometry x="890" y="100" width="80" height="60" as="geometry" />
        </mxCell>
        <mxCell id="3DrkHUAuv51QnaSY-TX0-31" value="" style="edgeStyle=orthogonalEdgeStyle;rounded=0;orthogonalLoop=1;jettySize=auto;html=1;endArrow=block;endFill=1;fontFamily=Times New Roman;" parent="1" source="3DrkHUAuv51QnaSY-TX0-32" target="3DrkHUAuv51QnaSY-TX0-34" edge="1">
          <mxGeometry relative="1" as="geometry" />
        </mxCell>
        <mxCell id="3DrkHUAuv51QnaSY-TX0-32" value="Node 1" style="rounded=1;whiteSpace=wrap;html=1;fontFamily=Times New Roman;" parent="1" vertex="1">
          <mxGeometry x="810" y="200" width="80" height="60" as="geometry" />
        </mxCell>
        <mxCell id="kWlhVEwk57Aopgg1cDPC-3" value="" style="edgeStyle=orthogonalEdgeStyle;rounded=0;orthogonalLoop=1;jettySize=auto;html=1;endArrow=block;endFill=1;" edge="1" parent="1" source="3DrkHUAuv51QnaSY-TX0-33" target="kWlhVEwk57Aopgg1cDPC-2">
          <mxGeometry relative="1" as="geometry" />
        </mxCell>
        <mxCell id="3DrkHUAuv51QnaSY-TX0-33" value="Node 2" style="rounded=1;whiteSpace=wrap;html=1;fontFamily=Times New Roman;" parent="1" vertex="1">
          <mxGeometry x="970" y="200" width="80" height="60" as="geometry" />
        </mxCell>
        <mxCell id="3DrkHUAuv51QnaSY-TX0-34" value="Node 3&lt;div&gt;&lt;i&gt;(duplicate of 2)&lt;/i&gt;&lt;/div&gt;" style="rounded=1;whiteSpace=wrap;html=1;fontFamily=Times New Roman;strokeColor=default;fillColor=light-dark(#F8CECC,#512D2B);" parent="1" vertex="1">
          <mxGeometry x="810" y="300" width="80" height="60" as="geometry" />
        </mxCell>
        <mxCell id="3DrkHUAuv51QnaSY-TX0-35" value="" style="endArrow=none;dashed=1;html=1;dashPattern=1 3;strokeWidth=2;rounded=0;align=center;verticalAlign=middle;fontFamily=Times New Roman;fontSize=11;fontColor=default;labelBackgroundColor=default;edgeStyle=orthogonalEdgeStyle;fillColor=#f5f5f5;strokeColor=#666666;" parent="1" edge="1">
          <mxGeometry width="50" height="50" relative="1" as="geometry">
            <mxPoint x="730" y="280" as="sourcePoint" />
            <mxPoint x="1090" y="280" as="targetPoint" />
          </mxGeometry>
        </mxCell>
        <mxCell id="3DrkHUAuv51QnaSY-TX0-36" value="Depth 1" style="text;html=1;align=center;verticalAlign=middle;whiteSpace=wrap;rounded=0;fontFamily=Times New Roman;fontSize=11;fontColor=default;labelBackgroundColor=default;" parent="1" vertex="1">
          <mxGeometry x="730" y="215" width="60" height="30" as="geometry" />
        </mxCell>
        <mxCell id="3DrkHUAuv51QnaSY-TX0-37" value="Depth 2" style="text;html=1;align=center;verticalAlign=middle;whiteSpace=wrap;rounded=0;fontFamily=Times New Roman;fontSize=11;fontColor=default;labelBackgroundColor=default;" parent="1" vertex="1">
          <mxGeometry x="730" y="315" width="60" height="30" as="geometry" />
        </mxCell>
        <mxCell id="3DrkHUAuv51QnaSY-TX0-38" value="Depth 0" style="text;html=1;align=center;verticalAlign=middle;whiteSpace=wrap;rounded=0;fontFamily=Times New Roman;fontSize=11;fontColor=default;labelBackgroundColor=default;" parent="1" vertex="1">
          <mxGeometry x="730" y="115" width="60" height="30" as="geometry" />
        </mxCell>
        <mxCell id="3DrkHUAuv51QnaSY-TX0-39" value="" style="endArrow=none;dashed=1;html=1;dashPattern=1 3;strokeWidth=2;rounded=0;align=center;verticalAlign=middle;fontFamily=Times New Roman;fontSize=11;fontColor=default;labelBackgroundColor=default;edgeStyle=orthogonalEdgeStyle;fillColor=#f5f5f5;strokeColor=#666666;" parent="1" edge="1">
          <mxGeometry width="50" height="50" relative="1" as="geometry">
            <mxPoint x="730" y="180" as="sourcePoint" />
            <mxPoint x="1090" y="180" as="targetPoint" />
          </mxGeometry>
        </mxCell>
        <mxCell id="3DrkHUAuv51QnaSY-TX0-40" value="" style="endArrow=none;dashed=1;html=1;dashPattern=1 3;strokeWidth=2;rounded=0;align=center;verticalAlign=middle;fontFamily=Times New Roman;fontSize=11;fontColor=default;labelBackgroundColor=default;edgeStyle=orthogonalEdgeStyle;fillColor=#f5f5f5;strokeColor=#666666;" parent="1" edge="1">
          <mxGeometry width="50" height="50" relative="1" as="geometry">
            <mxPoint x="320" y="380" as="sourcePoint" />
            <mxPoint x="680" y="380" as="targetPoint" />
          </mxGeometry>
        </mxCell>
        <mxCell id="3DrkHUAuv51QnaSY-TX0-44" value="Depth 3" style="text;html=1;align=center;verticalAlign=middle;whiteSpace=wrap;rounded=0;fontFamily=Times New Roman;fontSize=11;fontColor=default;labelBackgroundColor=default;" parent="1" vertex="1">
          <mxGeometry x="320" y="415" width="60" height="30" as="geometry" />
        </mxCell>
        <mxCell id="kWlhVEwk57Aopgg1cDPC-1" value="Node 4" style="rounded=1;whiteSpace=wrap;html=1;fontFamily=Times New Roman;fillColor=#F8CECC;" vertex="1" parent="1">
          <mxGeometry x="400" y="400" width="80" height="60" as="geometry" />
        </mxCell>
        <mxCell id="kWlhVEwk57Aopgg1cDPC-2" value="Node 2" style="rounded=1;whiteSpace=wrap;html=1;fontFamily=Times New Roman;" vertex="1" parent="1">
          <mxGeometry x="970" y="300" width="80" height="60" as="geometry" />
        </mxCell>
      </root>
    </mxGraphModel>
  </diagram>
</mxfile>
